/* XPM */
static char * exit_xpm[] = {
"64 64 300 2",
"  	c None",
". 	c #59975E",
"+ 	c #884B2B",
"@ 	c #874A2B",
"# 	c #8D4F2B",
"$ 	c #92542B",
"% 	c #94552B",
"& 	c #86492B",
"* 	c #85492B",
"= 	c #894C2B",
"- 	c #96572B",
"; 	c #A6642B",
"> 	c #AD692B",
", 	c #AC692B",
"' 	c #8D502B",
") 	c #91532B",
"! 	c #92532B",
"~ 	c #90522B",
"{ 	c #93542B",
"] 	c #A0602B",
"^ 	c #B06C2B",
"/ 	c #B6712B",
"( 	c #874B2B",
"_ 	c #864A2B",
": 	c #8C4F2B",
"< 	c #9B5B2B",
"[ 	c #A7652B",
"} 	c #AA672B",
"| 	c #A9672B",
"1 	c #A8662B",
"2 	c #A5642B",
"3 	c #A4632B",
"4 	c #8A4C2B",
"5 	c #8F512B",
"6 	c #8E502B",
"7 	c #95562B",
"8 	c #B46F2B",
"9 	c #B7722B",
"0 	c #B36F2B",
"a 	c #894D2B",
"b 	c #9D5D2B",
"c 	c #A8652B",
"d 	c #A2622B",
"e 	c #9A5C2B",
"f 	c #8D512C",
"g 	c #7C432C",
"h 	c #743C2C",
"i 	c #8B4E2B",
"j 	c #97582B",
"k 	c #B5702B",
"l 	c #B7712B",
"m 	c #A05F2B",
"n 	c #80472B",
"o 	c #723C2C",
"p 	c #6A352C",
"q 	c #66322C",
"r 	c #65302C",
"s 	c #9C5C2B",
"t 	c #A5632B",
"u 	c #A9662B",
"v 	c #9B5C2B",
"w 	c #8A4F2B",
"x 	c #7A412B",
"y 	c #763D2B",
"z 	c #753D2B",
"A 	c #6C362C",
"B 	c #612C2C",
"C 	c #5D292C",
"D 	c #5F2B2C",
"E 	c #602B2C",
"F 	c #8B4D2B",
"G 	c #99592B",
"H 	c #AE6B2B",
"I 	c #9E5E2B",
"J 	c #8C502B",
"K 	c #7E452C",
"L 	c #733D2C",
"M 	c #6B362C",
"N 	c #67322C",
"O 	c #66312C",
"P 	c #642F2C",
"Q 	c #612D2C",
"R 	c #5E2B2C",
"S 	c #A3622B",
"T 	c #8D512B",
"U 	c #773E2B",
"V 	c #68322C",
"W 	c #5E2A2C",
"X 	c #602C2C",
"Y 	c #5C2A2B",
"Z 	c #55282B",
"` 	c #53272A",
" .	c #995A2B",
"..	c #AD6A2B",
"+.	c #9E5D2B",
"@.	c #8B4F2B",
"#.	c #783F2C",
"$.	c #68332C",
"%.	c #622D2C",
"&.	c #5F2C2C",
"*.	c #54272A",
"=.	c #452229",
"-.	c #3E1F28",
";.	c #69332C",
">.	c #5B2A2B",
",.	c #56282B",
"'.	c #55282A",
").	c #472328",
"!.	c #351C26",
"~.	c #2A1924",
"{.	c #2B1925",
"].	c #482328",
"^.	c #93552B",
"/.	c #78402C",
"(.	c #622E2C",
"_.	c #5D2B2C",
":.	c #52272A",
"<.	c #412028",
"[.	c #402028",
"}.	c #361D26",
"|.	c #251822",
"1.	c #1A1621",
"2.	c #1B1621",
"3.	c #52262A",
"4.	c #894B2B",
"5.	c #80452B",
"6.	c #69342C",
"7.	c #472229",
"8.	c #3A1E27",
"9.	c #3B1E28",
"0.	c #361D25",
"a.	c #201721",
"b.	c #0E141F",
"c.	c #0F141F",
"d.	c #10141F",
"e.	c #171520",
"f.	c #251823",
"g.	c #2C1A25",
"h.	c #331C26",
"i.	c #452228",
"j.	c #733B2C",
"k.	c #632E2C",
"l.	c #3A1E28",
"m.	c #381D27",
"n.	c #462229",
"o.	c #51262A",
"p.	c #462227",
"q.	c #271921",
"r.	c #0D141F",
"s.	c #12141F",
"t.	c #181520",
"u.	c #1C1621",
"v.	c #231722",
"w.	c #331C25",
"x.	c #432128",
"y.	c #7B442A",
"z.	c #7C442A",
"A.	c #7D442B",
"B.	c #81462B",
"C.	c #773F2B",
"D.	c #321B27",
"E.	c #4C2429",
"F.	c #59292B",
"G.	c #4D2528",
"H.	c #2C1A22",
"I.	c #11141F",
"J.	c #151520",
"K.	c #211722",
"L.	c #311B25",
"M.	c #593128",
"N.	c #5C3229",
"O.	c #64342A",
"P.	c #6D372B",
"Q.	c #70392C",
"R.	c #6F382C",
"S.	c #6A342C",
"T.	c #632F2C",
"U.	c #5C2B2B",
"V.	c #341C27",
"W.	c #311B27",
"X.	c #4D242A",
"Y.	c #5A2A2B",
"Z.	c #4E2528",
"`.	c #161520",
" +	c #221722",
".+	c #341C25",
"++	c #442128",
"@+	c #5C2B2C",
"#+	c #402128",
"$+	c #51272A",
"%+	c #5E2C2B",
"&+	c #391E27",
"*+	c #3D1F28",
"=+	c #50252A",
"-+	c #57282B",
";+	c #5D2A2C",
">+	c #4E252A",
",+	c #3C1F28",
"'+	c #4A2329",
")+	c #371D27",
"!+	c #50262A",
"~+	c #4D2529",
"{+	c #4D2429",
"]+	c #4B2429",
"^+	c #3F2028",
"/+	c #472329",
"(+	c #3F1F28",
"_+	c #231822",
":+	c #57292B",
"<+	c #4F252A",
"[+	c #422128",
"}+	c #5A292B",
"|+	c #492329",
"1+	c #1E1622",
"2+	c #2E1A25",
"3+	c #432129",
"4+	c #4D252A",
"5+	c #442129",
"6+	c #301B27",
"7+	c #4A2429",
"8+	c #482329",
"9+	c #58292B",
"0+	c #4C2428",
"a+	c #281821",
"b+	c #02121F",
"c+	c #0B131F",
"d+	c #191520",
"e+	c #522828",
"f+	c #341E22",
"g+	c #1B171F",
"h+	c #14151F",
"i+	c #562C29",
"j+	c #6B372B",
"k+	c #6B3829",
"l+	c #5E3326",
"m+	c #4B2B23",
"n+	c #2D1D20",
"o+	c #0D131F",
"p+	c #55272A",
"q+	c #432328",
"r+	c #603429",
"s+	c #7B432B",
"t+	c #81472B",
"u+	c #7B4429",
"v+	c #673926",
"w+	c #3E2521",
"x+	c #0A131F",
"y+	c #1D1621",
"z+	c #2D1A25",
"A+	c #4C242A",
"B+	c #442328",
"C+	c #653729",
"D+	c #80472A",
"E+	c #83482A",
"F+	c #764128",
"G+	c #5F3525",
"H+	c #392321",
"I+	c #7E452A",
"J+	c #563024",
"K+	c #392221",
"L+	c #221920",
"M+	c #422228",
"N+	c #5F3329",
"O+	c #753F2A",
"P+	c #673827",
"Q+	c #3A2221",
"R+	c #08131F",
"S+	c #542A29",
"T+	c #65332B",
"U+	c #582D27",
"V+	c #301C22",
"W+	c #05121F",
"X+	c #4D2428",
"Y+	c #462228",
"Z+	c #1E1621",
"`+	c #361D27",
" @	c #1F1722",
".@	c #301B26",
"+@	c #59955D",
"@@	c #2F1B25",
"#@	c #58945C",
"$@	c #4D2527",
"%@	c #4B2428",
"&@	c #412025",
"*@	c #251821",
"=@	c #301B23",
"-@	c #3C1F27",
";@	c #472228",
">@	c #442127",
",@	c #331C23",
"'@	c #2B1A22",
")@	c #271824",
"!@	c #1F1721",
"~@	c #231823",
"{@	c #391D27",
"]@	c #331C27",
"^@	c #2A1925",
"/@	c #291924",
"(@	c #2B1924",
"_@	c #321B26",
". . . . . . . . . . . . . . . . . . . . . . . . . . . . . . . . . . . . . . . . . . . . . . . . . . . . . . . . . . . . . . . . ",
". . . . . . . . . . . . . . . . . . . . . . . . .                             . . . . . . . . . . . . . . . . . . . . . . . . . ",
". . . . . . . . . . . . . . . . . . . . . . . . .   + + @ @ @ @ @ @ @ @ + +   . . . . . . . . . . . . . . . . . . . . . . . . . ",
". . . . . . . . . . . . . . . . . . .             @ + # $ % % % % % % $ # + @             . . . . . . . . . . . . . . . . . . . ",
". . . . . . . . . . . . . . . . . .     + @ & & & * = - ; > , , , , > ; - = * & & & @ +     . . . . . . . . . . . . . . . . . . ",
". . . . . . . . . . . . . . .         + = ' ) ! ) ~ { ] ^ / / / / / / ^ ] { ~ ) ! ) ' = +         . . . . . . . . . . . . . . . ",
". . . . . . . . . . . . . .     ( _ & & : < [ } | } } 1 2 3 3 3 3 3 3 2 1 } } | } [ < : & & _ (     . . . . . . . . . . . . . . ",
". . . . . . . . . . .         + 4 # 5 6 7 ; 8 9 / / 0 2 $ = = a a = = $ 2 0 / / 9 8 ; 7 6 5 # 4 +         . . . . . . . . . . . ",
". . . . . . . . . .     + + @ @ 5 b ; c [ [ [ c [ d e f g h h h h h h g f e d [ c [ [ [ c ; b 5 @ @ + +     . . . . . . . . . . ",
". . . . . . . . .     + + + = i j } k l ^ m ~ : i n o p q r r r r r r q p o n i : ~ m ^ l k } j i = + + +     . . . . . . . . . ",
". . . . . . . .     + + @ @ 5 s t u 1 3 v w x y z A B C D E E E E E E D C B A z y x w v 3 1 u t s 5 @ @ + +     . . . . . . . . ",
". . . . . . .     + + + + F G , H I J K L M N O O P Q D D R R R R R R D D Q P O O N M L K J I H , G F + + + +     . . . . . . . ",
". . . . . .     + + + = ~ s t } S T U V D W D D X X X Y Z ` ` ` ` ` ` Z Y X X X D D W D V U T S } t s ~ = + + +     . . . . . . ",
". . . . .     + + + @ =  ., ..+.@.#.$.%.X D X &.&.X R *.=.-.-.-.-.-.-.=.*.R X &.&.X D X %.$.#.@.+...,  .= @ + + +     . . . . . ",
". . . . .   + + + + @ = j [ 3 ' U ;.X D X X &.>.,.'.` ).!.~.~.{.{.~.~.!.].` Z ,.>.&.X X D X ;.U ' 3 [ j = @ + + + +   . . . . . ",
". . . . .   + + + + + + 6 ^.J /.$.(.X X X X _.:.=.<.[.}.|.1.2.2.2.2.1.|.}.[.[.=.3._.X X X X (.$./.J ^.6 + + + + + +   . . . . . ",
". . . . .   4.4.4.+ 4.+ & 5.U 6.X D X X &.Y '.7.8.9.[.0.a.b.c.d.d.c.c.e.f.g.g.h.i.*.Y &.X X D X 6.U 5.& + 4.+ 4.4.4.  . . . . . ",
". . . . .   + + + + 4.( 5.j.$.k.X X X X _.3.=.l.m.n.o.p.q.r.r.c.c.c.c.s.t.u.u.v.w.x.:._.X X X X k.$.j.5.( 4.+ + + +   . . . . . ",
". . . . .   y.z.A.5.B.5.C.;.X X X X &.Y '.7.m.D.m.E.F.G.H.r.b.d.d.d.d.d.d.I.d.J.K.L.i.'.Y &.X X X X ;.C.5.B.5.A.z.y.  . . . . . ",
". . . . .   M.N.O.P.Q.R.S.T.D X X B U.3.=.9.V.W.m.X.Y.Z.H.r.b.d.d.d.d.d.c.c.b.I.`. +.+++3.@+B X X D T.S.R.Q.P.O.N.M.  . . . . . ",
". . . . .   #+i.$+%+%.Q Q X X X &.U.'.n.&+l.*+m.&+E.F.Z.H.r.b.d.d.d.d.d.d.d.d.d.d.J. +L.i.'.@+&.X X X Q Q %.%+$+i.#+  . . . . . ",
". . . . .   =+3.-+;+D D D X X X Y o.=.9.&+7.>+=.,+E.F.Z.H.r.b.d.d.d.d.d.d.d.d.d.c.I.`. +.+i.3.Y X X X D D D ;+-+3.=+  . . . . . ",
". . . . .   D D &.X X X X X &._.,.'+-.)+,+!+F.~+-.E.F.Z.H.r.b.d.d.d.d.d.d.d.d.d.d.d.d.J. +L.++'._.&.X X X X X &.D D   . . . . . ",
". . . . .   Q B B X X X X X >.3.{+>+]+^+-.o.>.>+-.E.F.Z.H.r.b.d.d.d.d.d.d.d.d.d.d.d.c.d.`. +w.i.3.>.X X X X X B B Q   . . . . . ",
". . . . .   _._.R X X X X X -+n.++*.-+/+(+!+Y.>+-.E.F.Z.H.r.b.d.d.d.d.d.d.d.d.d.d.d.d.d.d.J._+h.n.:+X X X X X R _._.  . . . . . ",
". . . . .   ~+<+,.R X X B X ,.[+[.*.}+|+^+!+Y.>+-.E.F.Z.H.r.b.d.d.d.d.d.d.d.d.d.d.d.d.d.b.I.1+2+3+-+X B X X R ,.<+~+  . . . . . ",
". . . . .   m.-.4+Y B X X R '.=.5+Z F.|+(+!+Y.>+-.E.F.Z.H.r.b.d.d.d.d.d.d.d.d.d.d.d.d.d.c.s.1+2+[+'.R X X B Y 4+-.m.  . . . . . ",
". . . . .   6+m.7+>.B X >.*.<+E.o.Y.F.8+(+!+Y.>+-.]+9+0+a+b+c+d.d.d.d.d.d.d.d.d.d.d.d.d.c.I.d+f.0.].*.Y X B >.7+m.6+  . . . . . ",
". . . . .   W.&+]+>.B &.,.n.n.*._.&.Y.8+(+!+Y.>+-.~+U.e+f+g+h+d.d.d.d.d.d.d.d.d.d.d.d.d.d.d.s.e.|.!.n.,.&.B >.]+&+W.  . . . . . ",
". . . . .   W.&+]+>.B &.*.<.x.,.X B Y.8+(+!+Y.X.#+i+j+k+l+m+n+c.o+d.d.d.d.d.d.d.d.d.d.d.d.d.c.d.u.g.[.p+&.B >.]+&+W.  . . . . . ",
". . . . .   W.&+]+>.B &.*.<.x.,.X B Y.8+(+!+Y.X.q+r+s+t+u+v+w+c.x+d.d.d.d.d.d.d.d.d.d.d.d.d.c.d.y+z+<.Z &.B >.]+&+W.  . . . . . ",
". . . . .   W.&+]+>.B &.*.<.x.,.X B Y.8+(+!+Y.A+B+C+D+E+F+G+H+c.c+d.d.d.d.d.d.d.d.d.d.d.d.d.c.I.y+z+<.Z &.B >.]+&+W.  . . . . . ",
". . . . .   W.&+]+>.B &.*.<.x.,.X B Y.8+(+!+Y.A+B+C+I+F+J+K+L+d.b.d.d.d.d.d.d.d.d.d.d.d.d.d.c.I.y+z+<.Z &.B >.]+&+W.  . . . . . ",
". . . . .   W.&+]+>.B &.*.<.x.,.X B Y.8+(+!+Y.X.M+N+O+P+Q+R+c+d.d.d.d.d.d.d.d.d.d.d.d.d.d.d.c.I.y+z+<.Z &.B >.]+&+W.  . . . . . ",
". . . . .   W.&+]+>.B &.*.<.x.,.X B Y.8+(+!+Y.4+[.S+T+U+V+W+c+d.d.d.d.d.d.d.d.d.d.d.d.d.d.d.c.I.y+z+<.Z &.B >.]+&+W.  . . . . . ",
". . . . .   W.&+]+>.B &.*.<.x.,.X B Y.8+(+!+Y.>+-.E.Y.Z.H.r.b.d.d.d.d.d.d.d.d.d.d.d.d.d.d.d.c.I.y+z+<.Z &.B >.]+&+W.  . . . . . ",
". . . . .   W.&+]+>.B &.*.<.x.,.X B Y.8+(+!+Y.>+-.]+F.X+H.r.b.d.d.d.d.d.d.d.d.d.d.d.d.d.d.d.c.I.y+z+<.Z &.B >.]+&+W.  . . . . . ",
". . . . .   W.&+]+>.B &.*.<.x.,.X B Y.8+(+!+Y.>+-.E.F.Z.H.r.b.d.d.d.d.d.d.d.d.d.d.d.d.d.d.d.c.I.y+z+<.Z &.B >.]+&+W.  . . . . . ",
". . . . .   W.&+]+>.B &.*.<.x.,.X B Y.8+(+!+Y.>+-.E.F.Z.H.r.b.d.d.d.d.d.d.d.d.d.d.d.d.d.d.d.c.I.y+z+<.Z &.B >.]+&+W.  . . . . . ",
". . . . .   W.&+]+>.B &.*.<.x.,.X B Y.8+(+!+Y.>+-.E.F.Z.H.r.b.d.d.d.d.d.d.d.d.d.d.d.d.d.d.d.c.I.y+z+<.Z &.B >.]+&+W.  . . . . . ",
". . . . .   W.&+]+Y %.&.*.<.x.,.X B Y.8+(+!+Y.>+-.E.F.Z.H.r.b.d.d.d.d.d.d.d.d.d.d.d.d.d.d.d.b.d.u.g.[.p+&.%.Y ]+&+W.  . . . . . ",
". . . . .     &+'+F.&.&.Z =.=.p+_.X Y.8+(+!+Y.>+-.E.F.Z.H.r.b.d.d.d.d.d.d.d.d.d.d.d.d.d.d.d.I.J.v.h.=.,.&.&.F.'+&+    . . . . . ",
". . . . . .     5+4+,._.>.:.4+4+` >.F.8+(+!+Y.>+-.E.F.Z.H.r.b.d.d.d.d.d.d.d.d.d.d.d.d.d.c.I.t._+.+Y+:.>._.,.4+5+    . . . . . . ",
". . . . . . .   )+*+]+Y.X _.p+=.=.,.F.|+(+!+Y.>+-.E.F.Z.H.r.b.d.d.d.d.d.d.d.d.d.d.d.d.d.c.s.Z+z+<.*._.X Y.]+*+)+  . . . . . . . ",
". . . . . . . .   `+8+Y.B X ,.x.<.*.F.|+(+!+Y.>+-.E.F.Z.H.r.b.d.d.d.d.d.d.d.d.d.d.d.d.d.c.s. @.@5+:+X B Y.8+`+  . . . . . . . . ",
". . . . . . . +@  )+8+Y.B X ,.x.[+*.F.|+(+!+Y.>+-.E.F.Z.H.r.b.d.d.d.d.d.d.d.d.d.d.d.d.d.c.s. @@@++-+X B Y.8+)+  +@. . . . . . . ",
". . . . . . . #@  )+8+Y.B X ,.x.[+*.F.|+(+!+Y.>+-.A+Y.Z.H.r.b.d.d.d.d.d.d.d.d.d.d.d.d.d.c.s. @@@++-+X B Y.8+)+  #@. . . . . . . ",
". . . . . . . #@  )+8+Y.B X ,.x.[+*.F.|+(+!+Y.>+-.]+9+$@H.r.b.d.d.d.d.d.d.d.d.d.d.d.d.d.c.s. @@@++-+X B Y.8+)+  #@. . . . . . . ",
". . . . . . . #@  )+8+Y.B X ,.x.[+*.F.|+^+o.>.<+*+[+%@&@*@b.c.d.d.d.d.d.d.d.d.d.d.d.d.d.c.s. @@@++-+X B Y.8+)+  #@. . . . . . . ",
". . . . . . . #@  )+8+Y.B X ,.x.[+*.F.|+(+!+Y.>+8.L.=@q.d+c.d.d.d.d.d.d.d.d.d.d.d.d.d.d.c.s. @@@++-+X B Y.8+)+  #@. . . . . . . ",
". . . . . . . #@  )+8+Y.B X ,.x.[+'.F.|+-@;@Z.>@L.K.J.b.c.c.c.c.c.c.c.c.c.c.c.c.c.c.c.c.b.I.1+@@++-+X B Y.8+)+  #@. . . . . . . ",
". . . . . . . #@  )+8+Y.B X ,.x.[+p+F.'+)+.+,@'@a.e.d.r.c.d.d.d.d.d.d.d.d.d.d.d.d.d.d.d.b.s. @@@++-+X B Y.8+)+  #@. . . . . . . ",
". . . . . . . #@  )+8+Y.B X ,.x.(+>+:.=.h.)@!@2.u.2.2.2.2.2.2.2.2.2.2.2.2.2.2.2.2.2.2.2.1.u.~@.@x.-+X B >.]+m.  . . . . . . . . ",
". . . . . . . #@  )+8+Y.B X ,.x.{@[.[+9.]@z+^@/@~.~.(@{.{.{.{.{.{.{.{.{.{.{.{.{.{.{.{.{.(@{.z+_@x.-+X B R *.    . . . . . . . . ",
". . . . . . . .   m.7+>.B X 9+'+^+^+[.^+(+-.-.-.-.-.-.-.-.-.-.-.-.-.-.-.-.-.-.-.-.-.-.-.-.-.-.^+'+9+X X X   +@. . . . . . . . . ",
". . . . . . . .     :._.X X _.-+` :.` ` ` ` ` ` ` ` ` ` ` ` ` ` ` ` ` ` ` ` ` ` ` ` ` ` ` ` ` ` -+_.X X X   . . . . . . . . . . ",
". . . . . . . . .     X X X R Y Y.Y.Y.Y.Y.Y.Y.Y.Y.Y.Y.Y.Y.Y.Y.Y.Y.Y.Y.Y.Y.Y.Y.Y.Y.Y.Y.Y.Y.Y.Y.Y.Y R X X X   . . . . . . . . . . ",
". . . . . . . . . .   B B X >.3.E.]+E.E.E.E.E.E.E.E.E.E.E.E.E.E.E.E.E.E.E.E.E.E.E.E.E.E.E.E.]+E.3.>.X B B   . . . . . . . . . . ",
". . . . . . . . . .   _._.@+Z n.&+m.&+&+&+&+&+&+&+&+&+&+&+&+&+&+&+&+&+&+&+&+&+&+&+&+&+&+&+&+m.&+n.Z @+_._.  . . . . . . . . . . ",
". . . . . . . . . .   4+4+4+'+^+D.  W.W.W.W.W.W.W.W.W.W.W.W.W.W.W.W.W.W.W.W.W.W.W.W.W.W.W.W.  D.^+'+4+4+4+  . . . . . . . . . . ",
". . . . . . . . . .   9.9.9.l.                                                                    l.9.9.9.  . . . . . . . . . . ",
". . . . . . . . . .     D.D.    . . . . . . . . . . . . . . . . . . . . . . . . . . . . . . . .     D.D.    . . . . . . . . . . ",
". . . . . . . . . . .         . . . . . . . . . . . . . . . . . . . . . . . . . . . . . . . . . .         . . . . . . . . . . . ",
". . . . . . . . . . . . . . . . . . . . . . . . . . . . . . . . . . . . . . . . . . . . . . . . . . . . . . . . . . . . . . . . "};
