/* XPM */
static char * player_xpm[] = {
"64 64 523 2",
"  	c None",
". 	c #59975E",
"+ 	c #573726",
"@ 	c #4B2B1D",
"# 	c #4F2F20",
"$ 	c #503020",
"% 	c #543424",
"& 	c #6E4B33",
"* 	c #66452D",
"= 	c #563624",
"- 	c #48281A",
"; 	c #553524",
"> 	c #583726",
", 	c #6D4B32",
"' 	c #7D593B",
") 	c #5C955D",
"! 	c #876141",
"~ 	c #855F40",
"{ 	c #725035",
"] 	c #513120",
"^ 	c #49291B",
"/ 	c #4E2E1F",
"( 	c #563625",
"_ 	c #583827",
": 	c #6A4831",
"< 	c #845E3F",
"[ 	c #2B1210",
"} 	c #835E3F",
"| 	c #745136",
"1 	c #533321",
"2 	c #462619",
"3 	c #4D2E1E",
"4 	c #553525",
"5 	c #67462F",
"6 	c #21050B",
"7 	c #7E583B",
"8 	c #563623",
"9 	c #66442E",
"0 	c #815B3C",
"a 	c #866040",
"b 	c #94714D",
"c 	c #977752",
"d 	c #5D402B",
"e 	c #411D13",
"f 	c #4A291B",
"g 	c #533423",
"h 	c #5C3A28",
"i 	c #7A5A3D",
"j 	c #9E7E57",
"k 	c #20020A",
"l 	c #8E6A48",
"m 	c #886342",
"n 	c #B19165",
"o 	c #CAAE7A",
"p 	c #7E6646",
"q 	c #583D29",
"r 	c #573B28",
"s 	c #4D2D1E",
"t 	c #745237",
"u 	c #A7885E",
"v 	c #D5B881",
"w 	c #1A0002",
"x 	c #796446",
"y 	c #C0A372",
"z 	c #A28159",
"A 	c #B29366",
"B 	c #DCBF87",
"C 	c #C9AE7A",
"D 	c #C4A977",
"E 	c #A68D62",
"F 	c #533724",
"G 	c #543423",
"H 	c #A3875E",
"I 	c #D3B680",
"J 	c #E1C48A",
"K 	c #58955D",
"L 	c #180000",
"M 	c #786547",
"N 	c #D6BA83",
"O 	c #C8AA77",
"P 	c #CCAE7B",
"Q 	c #E1C48C",
"R 	c #C9AC79",
"S 	c #C3A573",
"T 	c #BDA171",
"U 	c #A78D65",
"V 	c #7D5F42",
"W 	c #A0825A",
"X 	c #CFB27D",
"Y 	c #E5C88F",
"Z 	c #1C0003",
"` 	c #705C40",
" .	c #DEC188",
"..	c #E8CB91",
"+.	c #E5C890",
"@.	c #B39469",
"#.	c #8D6948",
"$.	c #B29469",
"%.	c #E2C58F",
"&.	c #B6986C",
"*.	c #AB8D64",
"=.	c #E8CC93",
"-.	c #25080C",
";.	c #513927",
">.	c #957550",
",.	c #CDB07B",
"'.	c #E9CC92",
").	c #EED197",
"!.	c #E4C790",
"~.	c #AA8E66",
"{.	c #EACD95",
"].	c #E7CA92",
"^.	c #B1956B",
"/.	c #A38861",
"(.	c #E8CB93",
"_.	c #29100F",
":.	c #341913",
"<.	c #624831",
"[.	c #C2A775",
"}.	c #F0D399",
"|.	c #DBBF8A",
"1.	c #D8BC88",
"2.	c #EED198",
"3.	c #F1D49A",
"4.	c #DDC18C",
"5.	c #D6BA87",
"6.	c #EDD097",
"7.	c #270A0C",
"8.	c #3D2A1D",
"9.	c #B0976A",
"0.	c #EED095",
"a.	c #F2D59A",
"b.	c #F3D69B",
"c.	c #F3D59A",
"d.	c #2B110F",
"e.	c #2C1413",
"f.	c #301F1D",
"g.	c #D4BB8B",
"h.	c #E3C892",
"i.	c #E8CC94",
"j.	c #DDC28E",
"k.	c #30201F",
"l.	c #3D3939",
"m.	c #515152",
"n.	c #68635A",
"o.	c #988768",
"p.	c #E0C590",
"q.	c #F0D39A",
"r.	c #EED299",
"s.	c #EDD198",
"t.	c #BDA77C",
"u.	c #766C5B",
"v.	c #605F5C",
"w.	c #2B100E",
"x.	c #302323",
"y.	c #393535",
"z.	c #404040",
"A.	c #4B4B4B",
"B.	c #4B4C4F",
"C.	c #635F57",
"D.	c #9F8E6E",
"E.	c #AFA292",
"F.	c #B2A9A4",
"G.	c #B1A79E",
"H.	c #AB9A7D",
"I.	c #827660",
"J.	c #4C4E50",
"K.	c #4E4E4E",
"L.	c #474646",
"M.	c #616B8C",
"N.	c #290D00",
"O.	c #2F1E18",
"P.	c #41332D",
"Q.	c #4A3E38",
"R.	c #3D3C3B",
"S.	c #3D3E3E",
"T.	c #4A4A4A",
"U.	c #535353",
"V.	c #4A4C4F",
"W.	c #505F7A",
"X.	c #556C92",
"Y.	c #54688B",
"Z.	c #4B525F",
"`.	c #50504F",
" +	c #515151",
".+	c #424241",
"++	c #3B3A39",
"@+	c #5F698A",
"#+	c #7989B9",
"$+	c #3B3546",
"%+	c #444552",
"&+	c #564B52",
"*+	c #5A4645",
"=+	c #3F3634",
"-+	c #474747",
";+	c #565656",
">+	c #4D4F52",
",+	c #42454C",
"'+	c #46484E",
")+	c #555657",
"!+	c #4F4F4F",
"~+	c #414141",
"{+	c #3E3F40",
"]+	c #393D46",
"^+	c #5C688C",
"/+	c #7787B8",
"(+	c #7989BA",
"_+	c #6D7AA5",
":+	c #6E7CA7",
"<+	c #6978A0",
"[+	c #616887",
"}+	c #5A4647",
"|+	c #43362E",
"1+	c #373838",
"2+	c #444343",
"3+	c #3F3F3E",
"4+	c #414040",
"5+	c #474746",
"6+	c #444444",
"7+	c #3C3B3A",
"8+	c #393C43",
"9+	c #506283",
"0+	c #6077A1",
"a+	c #6B81AF",
"b+	c #7788B8",
"c+	c #7A8ABC",
"d+	c #6F84B4",
"e+	c #6278A1",
"f+	c #626683",
"g+	c #574A52",
"h+	c #463528",
"i+	c #373531",
"j+	c #353431",
"k+	c #3B3A37",
"l+	c #3F3F3D",
"m+	c #3E3F3F",
"n+	c #373839",
"o+	c #353534",
"p+	c #3E352D",
"q+	c #4F4244",
"r+	c #5D6F93",
"s+	c #617CA9",
"t+	c #677EAB",
"u+	c #7687B8",
"v+	c #7587B7",
"w+	c #617BA8",
"x+	c #6179A3",
"y+	c #63627A",
"z+	c #575161",
"A+	c #414C62",
"B+	c #404C62",
"C+	c #465166",
"D+	c #4B4E5C",
"E+	c #4A403C",
"F+	c #44362F",
"G+	c #3F424F",
"H+	c #4C4957",
"I+	c #614A49",
"J+	c #626F92",
"K+	c #607CA8",
"L+	c #7788B9",
"M+	c #6A80AE",
"N+	c #627BA8",
"O+	c #617BA7",
"P+	c #6177A0",
"Q+	c #6077A0",
"R+	c #5E76A0",
"S+	c #5E77A2",
"T+	c #5F6A8A",
"U+	c #614B4C",
"V+	c #604743",
"W+	c #5F627D",
"X+	c #606887",
"Y+	c #634E50",
"Z+	c #626E90",
"`+	c #687FAC",
" @	c #607BA6",
".@	c #617CA8",
"+@	c #6277A1",
"@@	c #626E91",
"#@	c #63637D",
"$@	c #64525A",
"%@	c #64463D",
"&@	c #607CA9",
"*@	c #677EAC",
"=@	c #627CA8",
"-@	c #635C6E",
";@	c #654841",
">@	c #647DA9",
",@	c #6D82B0",
"'@	c #687FAD",
")@	c #607AA6",
"!@	c #516486",
"~@	c #5A729A",
"{@	c #6079A5",
"]@	c #607BA7",
"^@	c #607AA7",
"/@	c #5F77A1",
"(@	c #2D2D2C",
"_@	c #313338",
":@	c #404C61",
"<@	c #5B7299",
"[@	c #6981AA",
"}@	c #6A80A9",
"|@	c #627BA5",
"1@	c #6B82AA",
"2@	c #687FA9",
"3@	c #566B90",
"4@	c #353B46",
"5@	c #7A8ABB",
"6@	c #6B80AE",
"7@	c #637CA9",
"8@	c #23221F",
"9@	c #272520",
"0@	c #303339",
"a@	c #4B566A",
"b@	c #ABB1BC",
"c@	c #AFB4BF",
"d@	c #6B7486",
"e@	c #B8BDC7",
"f@	c #9CA1AE",
"g@	c #3C485D",
"h@	c #28292D",
"i@	c #7084B3",
"j@	c #6C81AF",
"k@	c #435471",
"l@	c #39455B",
"m@	c #252422",
"n@	c #34312B",
"o@	c #9D9C9A",
"p@	c #B9B8B7",
"q@	c #B3B2B1",
"r@	c #E4E3E2",
"s@	c #B1B0AF",
"t@	c #2D333F",
"u@	c #40506B",
"v@	c #5B79A7",
"w@	c #51678B",
"x@	c #343E52",
"y@	c #323C4E",
"z@	c #343E4F",
"A@	c #90939A",
"B@	c #D9DADF",
"C@	c #DFE1E5",
"D@	c #A3A5AA",
"E@	c #41526F",
"F@	c #61779F",
"G@	c #9D9AA1",
"H@	c #888FA5",
"I@	c #878FA5",
"J@	c #6A7FA7",
"K@	c #697FA7",
"L@	c #5E78A2",
"M@	c #5A729B",
"N@	c #587099",
"O@	c #6C80A4",
"P@	c #8696B5",
"Q@	c #8797B6",
"R@	c #7285A8",
"S@	c #59739E",
"T@	c #7182A4",
"U@	c #C5B295",
"V@	c #E3C893",
"W@	c #E0C89B",
"X@	c #E0C79B",
"Y@	c #DAC193",
"Z@	c #C9B79E",
"`@	c #C7B69F",
" #	c #C8B79F",
".#	c #5C78A5",
"+#	c #5B77A5",
"@#	c #5F7AA7",
"##	c #5F7AA8",
"$#	c #7484A5",
"%#	c #CBB593",
"&#	c #ECCE91",
"*#	c #F0D297",
"=#	c #EBCD92",
"-#	c #E6C98F",
";#	c #F0D398",
">#	c #F1D499",
",#	c #F4D698",
"'#	c #6D81A6",
")#	c #6E81A6",
"!#	c #AEA49A",
"~#	c #D8C095",
"{#	c #E3C68C",
"]#	c #E2C58A",
"^#	c #E5C88E",
"/#	c #F2D499",
"(#	c #DAC39C",
"_#	c #7D89A5",
":#	c #5D79A7",
"<#	c #627BA7",
"[#	c #697EA6",
"}#	c #B1A69A",
"|#	c #E2C58C",
"1#	c #E2C58B",
"2#	c #EDD096",
"3#	c #DBC49C",
"4#	c #7F8AA5",
"5#	c #5C79A7",
"6#	c #ADA39B",
"7#	c #E1C48B",
"8#	c #E7CA90",
"9#	c #EBCD91",
"0#	c #D6BF96",
"a#	c #7D88A5",
"b#	c #97969F",
"c#	c #D5BC8F",
"d#	c #B7A998",
"e#	c #7483A5",
"f#	c #659961",
"g#	c #6D9B62",
"h#	c #7082A5",
"i#	c #637CA6",
"j#	c #5E78A3",
"k#	c #5E77A1",
"l#	c #6079A4",
"m#	c #617AA6",
"n#	c #607AA5",
"o#	c #45536D",
"p#	c #404B61",
"q#	c #4B5C7A",
"r#	c #435068",
"s#	c #414D64",
"t#	c #2C2A25",
"u#	c #2C2B27",
"v#	c #2C2B26",
"w#	c #2C2A24",
"x#	c #2C2A26",
"y#	c #2B2821",
"z#	c #2E2E2E",
"A#	c #2B2C2D",
"B#	c #2C2D2E",
"C#	c #403A33",
"D#	c #3F3933",
"E#	c #BD9B6D",
"F#	c #AC8D65",
"G#	c #AC8D64",
"H#	c #D1AB78",
"I#	c #D2AC79",
"J#	c #D3AD79",
"K#	c #D3AC79",
"L#	c #CDA775",
"M#	c #CAA573",
"N#	c #D0AA77",
"O#	c #B89366",
"P#	c #A7835A",
"Q#	c #CBA573",
"R#	c #D0AA78",
"S#	c #A8835B",
"T#	c #CBA574",
"U#	c #C19A6A",
"V#	c #A58057",
"W#	c #956F4B",
"X#	c #B89264",
"Y#	c #BF9868",
"Z#	c #C39C6C",
"`#	c #63985F",
" $	c #BE9767",
".$	c #BE9768",
"+$	c #916B49",
"@$	c #63955D",
"#$	c #AE8659",
"$$	c #9D764E",
"%$	c #916B47",
"&$	c #AA8256",
"*$	c #AD8558",
"=$	c #9C764E",
"-$	c #9D764F",
";$	c #AF8659",
">$	c #9F7850",
",$	c #8C6644",
"'$	c #AA8257",
")$	c #A67F54",
"!$	c #AF8759",
"~$	c #AA8357",
"{$	c #9A744D",
"]$	c #A17A51",
"^$	c #A88055",
"/$	c #97714B",
"($	c #8E6846",
"_$	c #A27B52",
":$	c #AC8458",
"<$	c #926C48",
"[$	c #A47D53",
"}$	c #A98156",
"|$	c #956F4A",
"1$	c #886242",
"2$	c #886241",
"3$	c #8D6745",
"4$	c #A37C52",
"5$	c #AD8559",
"6$	c #96704B",
"7$	c #A67E54",
"8$	c #946E49",
"9$	c #8A6443",
"0$	c #866041",
"a$	c #8F6946",
"b$	c #906A47",
"c$	c #AC8558",
"d$	c #966F4A",
"e$	c #98724C",
"f$	c #7A553A",
"g$	c #835D3F",
"h$	c #936C48",
"i$	c #9E774F",
"j$	c #906946",
"k$	c #815C3E",
"l$	c #805B3D",
"m$	c #684631",
"n$	c #7B563B",
"o$	c #805B3E",
"p$	c #724F36",
"q$	c #845F40",
"r$	c #745137",
"s$	c #694732",
"t$	c #6A4732",
"u$	c #6A4832",
"v$	c #714E36",
"w$	c #6B4933",
"x$	c #63412E",
". . . . . . . . . . . . . . . . . . . . . . . . . . . . .             . . . . . . . . . . . . . . . . . . . . . . . . . . . . . ",
". . . . . . . . . . . . . . . . . . . . . . . . . . . .   + + + + + +   . . . . . . . . . . . . . . . . . . . . . . . . . . . . ",
". . . . . . . . . . . . . . . . . . . . . . . . . . .   @ # $ % + + + &   . . . . . . . . . . . . . . . . . . . . . . . . . . . ",
". . . . . . . . . . . . . . . . . . . . . . . . . .   * = - - # ; + > , '   ) . . . . . . . . . . . . . . . . . . . . . . . . . ",
". . . . . . . . . . . . . . . . . . . . . .     .   ! ~ { ] ^ - / ( + _ : <   . . . . . . . . . . . . . . . . . . . . . . . . . ",
". . . . . . . . . . . . . . . . . . . . .   [ [     ! ! } | 1 2 3 ( + 4 5 <   . . . . . . . . . . . . . . . . . . . . . . . . . ",
". . . . . . . . . . . . . . . . . . . . .   [ [ 6   ! ! ! 7 8 2 / + + 4 9 0   . . . . . . . . . . . . . . . . . . . . . . . . . ",
". . . . . . . . . . . . . . . . . . . . .   [ [ 6   a a b c d e f g + h i j   . . . . . . . . . . . . . . . . . . . . . . . . . ",
". . . . . . . . . . . . . . . . . . . . .   [ [ k   l m n o p q r s ; t u v   . . . . . . . . . . . . . . . . . . . . . . . . . ",
". . . . . . . . . . . . . . . . . . . . .     [ w x y z A B C D E F G H I J   . . . . . . . . . . . . . . . . . . . . . . . . . ",
". . . . . . . . . . . . . . . . . . . . . . K [ L M N O P Q R S T U V W X Y   . . . . . . . . . . . . . . . . . . . . . . . . . ",
". . . . . . . . . . . . . . . . . . . . . .   [ Z ` o  ...+.@.#.$.%.&.#.*.=.  . . . . . . . . . . . . . . . . . . . . . . . . . ",
". . . . . . . . . . . . . . . . . . . . . .   [ -.;.>.,.'.).!.~.~.{.].^./.(.  . . . . . . . . . . . . . . . . . . . . . . . . . ",
". . . . . . . . . . . . . . . . . . . . . . .   _.:.<.[.'.}.}.|.1.2.3.4.5.6.  . . . . . . . . . . . . . . . . . . . . . . . . . ",
". . . . . . . . . . . . . . . . . . . . . . . .   7.8.9.0.3.}.3.3.}.}.a.b.c.  . . . . . . . . . . . . . . . . . . . . . . . . . ",
". . . . . . . . . . . . . . . . . . . . . . .   d.e.f.  g.h.2.}.}.}.}.i.j.  . . . . . . . . . . . . . . . . . . . . . . . . . . ",
". . . . . . . . . . . . . . . . . . . . . .   [ d.k.l.m.n.o.p.q.r.r.s.t.u.v.  . . . . . . . . . . . . . . . . . . . . . . . . . ",
". . . . . . . . . . . . . . . . . . . . .   [ w.x.y.z.A.B.C.D.E.F.G.H.I.J.K.L.M.  . . . . . . . . . . . . . . . . . . . . . . . ",
". . . . . . . . . . . . . . . . . . . . .   N.O.P.Q.R.S.T.U.V.W.X.Y.Z.`. +.+++@+#+    . . . . . . . . . . . . . . . . . . . . . ",
". . . . . . . . . . . . . . . . . . . . .   $+%+&+*+=+++z.-+;+>+,+'+)+!+~+{+]+^+/+(+  . . . . . . . . . . . . . . . . . . . . . ",
". . . . . . . . . . . . . . . . . . . . .   _+:+<+[+}+|+1+~+-+2+3+4+5+6+7+8+9+0+a+b+  . . . . . . . . . . . . . . . . . . . . . ",
". . . . . . . . . . . . . . . . . . . . .   c+c+d+e+f+g+h+i+j+k+l+m+n+o+p+q+r+s+t+u+  . . . . . . . . . . . . . . . . . . . . . ",
". . . . . . . . . . . . . . . . . . . .     (+v+a+w+x+y+z+A+B+C+D+E+F+G+H+I+J+K+t+u+  . . . . . . . . . . . . . . . . . . . . . ",
". . . . . . . . . . . . . . . . . . . .   (+L+M+N+O+  P+Q+R+R+S+T+U+V+W+X+Y+Z+K+t+u+  . . . . . . . . . . . . . . . . . . . . . ",
". . . . . . . . . . . . . . . . . . . . (+(+b+`+ @O+    s+.@.@.@+@J+@@#@$@%@  &@*@u+  . . . . . . . . . . . . . . . . . . . . . ",
". . . . . . . . . . . . . . . . . . . . (+(+L+`+ @        =@O+O+O+.@.@@@-@;@    >@,@  . . . . . . . . . . . . . . . . . . . . . ",
". . . . . . . . . . . . . . . . . . . . (+(+L+'@)@      !@~@{@]@^@O+^@^@/@      O+O+  . . . . . . . . . . . . . . . . . . . . . ",
". . . . . . . . . . . . . . . . . . . . (+(+u+`+)@    (@_@:@<@[@}@|@1@2@3@4@    O+O+  . . . . . . . . . . . . . . . . . . . . . ",
". . . . . . . . . . . . . . . . . . . . 5@v+6@7@O+    8@9@0@a@b@c@d@e@f@g@h@    O+O+  . . . . . . . . . . . . . . . . . . . . . ",
". . . . . . . . . . . . . . . . . . . . i@j@=@O+O+    k@l@m@n@o@p@q@r@s@t@u@    v@v@  . . . . . . . . . . . . . . . . . . . . . ",
". . . . . . . . . . . . . . . . . . . .   w+]@]@]@    )@w@x@y@z@A@B@C@D@E@F@  G@H@I@  . . . . . . . . . . . . . . . . . . . . . ",
". . . . . . . . . . . . . . . . . . . .     J@K@K@    O+L@M@~@N@O@P@Q@R@S@T@U@V@W@X@  . . . . . . . . . . . . . . . . . . . . . ",
". . . . . . . . . . . . . . . . . . . .   Y@Z@`@ #  ^@O+w+=@=@=@^@.#+#@###$#%#&#*#=#  . . . . . . . . . . . . . . . . . . . . . ",
". . . . . . . . . . . . . . . . . . . . J -#;#>#,#  '#@#O+O+O+O+O+O+O+O+@#)#!#~#'.{#  . . . . . . . . . . . . . . . . . . . . . ",
". . . . . . . . . . . . . . . . . . . . ]#^#6.}./#(#_#:#O+O+O+O+O+O+O+O+O+<#[#}#|#1#  . . . . . . . . . . . . . . . . . . . . . ",
". . . . . . . . . . . . . . . . . . . . 1#{#-#2#/#3#4#5#O+O+O+O+O+O+O+O+O+O+@#6#7#  . . . . . . . . . . . . . . . . . . . . . . ",
". . . . . . . . . . . . . . . . . . . .   1#1#8#9#0#a#:#O+O+O+O+O+O+O+O+O+O+O+b#  . . . . . . . . . . . . . . . . . . . . . . . ",
". . . . . . . . . . . . . . . . . . . . .   1#1#c#d#e###.@.@.@O+O+O+w+.@.@.@O+^@. . . . . . . . . . . . . . . . . . . . . . . . ",
". . . . . . . . . . . . . . . . . . . . . . f#g#  h#i#j#R+R+k#l#O+m#S+R+R+k#n#  . . . . . . . . . . . . . . . . . . . . . . . . ",
". . . . . . . . . . . . . . . . . . . . . . . .       o#p#:@B+q#    r#p#:@s#    . . . . . . . . . . . . . . . . . . . . . . . . ",
". . . . . . . . . . . . . . . . . . . . . . . . .     t#u#u#v#  .   w#u#u#x#y#  . . . . . . . . . . . . . . . . . . . . . . . . ",
". . . . . . . . . . . . . . . . . . . . . . . . .   z#z#z#z#z#  .   z#z#z#z#z#z#. . . . . . . . . . . . . . . . . . . . . . . . ",
". . . . . . . . . . . . . . . . . . . . . . . . .   z#z#z#z#  . .   z#z#z#z#z#z#. . . . . . . . . . . . . . . . . . . . . . . . ",
". . . . . . . . . . . . . . . . . . . . . . . . .   z#z#z#z#  . . .   z#z#z#z#z#. . . . . . . . . . . . . . . . . . . . . . . . ",
". . . . . . . . . . . . . . . . . . . . . . . .   z#z#z#z#z#  . . . . z#z#z#z#z#  . . . . . . . . . . . . . . . . . . . . . . . ",
". . . . . . . . . . . . . . . . . . . . . . . .   A#A#A#B#z#  . . . . A#A#A#A#A#A#  . . . . . . . . . . . . . . . . . . . . . . ",
". . . . . . . . . . . . . . . . . . . . . . . .   C#C#C#D#  . . . . . C#C#C#C#C#C#  . . . . . . . . . . . . . . . . . . . . . . ",
". . . . . . . . . . . . . . . . . . . . . . .   E#F#G#G#F#. . . . . . *.G#G#G#G#G#  . . . . . . . . . . . . . . . . . . . . . . ",
". . . . . . . . . . . . . . . . . . . . .     H#I#J#K#I#I#  . . . .   I#I#I#I#J#J#    . . . . . . . . . . . . . . . . . . . . . ",
". . . . . . . . . . . . . . . . . . . . .   H#H#L#M#N#H#H#H#  . .   H#H#H#H#H#L#M#N#  . . . . . . . . . . . . . . . . . . . . . ",
". . . . . . . . . . . . . . . . . . . . .   H#H#O#P#Q#H#H#H#  . .   N#N#N#N#R#O#S#T#  . . . . . . . . . . . . . . . . . . . . . ",
". . . . . . . . . . . . . . . . . . . . .     U#V#W#X#Y#Z#  `#. .    $.$.$.$.$V#+$    . . . . . . . . . . . . . . . . . . . . . ",
". . . . . . . . . . . . . . . . . . . . . . @$#$$$%$&$#$*$. . . .   *$#$#$#$#$=$!   . . . . . . . . . . . . . . . . . . . . . . ",
". . . . . . . . . . . . . . . . . . . . . .   #$-$%$&$;$#$. . . . . . #$#$#$#$>$,$  . . . . . . . . . . . . . . . . . . . . . . ",
". . . . . . . . . . . . . . . . . . . . . .   #$-$%$&$;$#$. . . . . . #$#$#$#$'$)$  . . . . . . . . . . . . . . . . . . . . . . ",
". . . . . . . . . . . . . . . . . . . . .   #$!$-$%$~$!$#$. . . . . . {$]$*$#$#$!$#$  . . . . . . . . . . . . . . . . . . . . . ",
". . . . . . . . . . . . . . . . . . . . .   #$^$/$($_$:$!$. . . . . .   <$[$:$#$#$#$_$  . . . . . . . . . . . . . . . . . . . . ",
". . . . . . . . . . . . . . . . . . . . .   }$|$1$2$3$_$:$. . . . . . .   ($4$5$#$:$6$a   ) . . . . . . . . . . . . . . . . . . ",
". . . . . . . . . . . . . . . . . . . .   7$8$9$0$! ! a$8$. . . . . . .   1$b$]$#$c$d$a ! !   . . . . . . . . . . . . . . . . . ",
". . . . . . . . . . . . . . . . . . . . >$e$1$0$! ! ! ! ! . . . . . . .   f$g$h$i$-$j$! 2$2$2$  . . . . . . . . . . . . . . . . ",
". . . . . . . . . . . . . . . . . . . . k$g$! ! ! ! ! g$l$. . . . . . .   m$n$k$k$k$k$o$o$o$o$o$. . . . . . . . . . . . . . . . ",
". . . . . . . . . . . . . . . . . . . . m$p$< a a a q$r$m$. . . . . . . .   s$s$s$s$s$s$s$s$s$t$. . . . . . . . . . . . . . . . ",
". . . . . . . . . . . . . . . . . . . .   u$v$v$v$v$v$w$  . . . . . . . . .                     . . . . . . . . . . . . . . . . ",
". . . . . . . . . . . . . . . . . . . . .   x$x$x$x$x$  . . . . . . . . . . . . . . . . . . . . . . . . . . . . . . . . . . . . "};
