/* XPM */
static char * wall_xpm[] = {
"64 64 327 2",
"  	c None",
". 	c #59975E",
"+ 	c #553110",
"@ 	c #65441B",
"# 	c #65431B",
"$ 	c #775626",
"% 	c #86642D",
"& 	c #89672F",
"* 	c #88662F",
"= 	c #83612C",
"- 	c #725023",
"; 	c #583412",
"> 	c #522D0E",
", 	c #6A491E",
"' 	c #85632D",
") 	c #9D7939",
"! 	c #A37F3C",
"~ 	c #A37E3C",
"{ 	c #A4803D",
"] 	c #9A7638",
"^ 	c #7F5D2A",
"/ 	c #66441C",
"( 	c #624019",
"_ 	c #64421A",
": 	c #775525",
"< 	c #86642E",
"[ 	c #947134",
"} 	c #A07B3A",
"| 	c #A47E3C",
"1 	c #A5803D",
"2 	c #A8833F",
"3 	c #AA8540",
"4 	c #937034",
"5 	c #87652E",
"6 	c #745224",
"7 	c #A17C3B",
"8 	c #9E7939",
"9 	c #9D7838",
"0 	c #9E7838",
"a 	c #A17B3A",
"b 	c #A6813D",
"c 	c #A9843F",
"d 	c #A8833E",
"e 	c #A27E3C",
"f 	c #9B7738",
"g 	c #82602B",
"h 	c #67451C",
"i 	c #765525",
"j 	c #A17C3A",
"k 	c #A7823E",
"l 	c #A6803D",
"m 	c #957235",
"n 	c #755425",
"o 	c #9F7939",
"p 	c #A27C3B",
"q 	c #A47F3C",
"r 	c #987537",
"s 	c #7E5C29",
"t 	c #613F18",
"u 	c #775625",
"v 	c #84622C",
"w 	c #A57F3D",
"x 	c #A9853F",
"y 	c #A37D3B",
"z 	c #A6813E",
"A 	c #9C7839",
"B 	c #8C6930",
"C 	c #735223",
"D 	c #5E3C17",
"E 	c #59965D",
"F 	c #67461D",
"G 	c #A07A3A",
"H 	c #9F7B3A",
"I 	c #6D4B20",
"J 	c #603E18",
"K 	c #5C3915",
"L 	c #553211",
"M 	c #68461D",
"N 	c #8C6931",
"O 	c #A7813E",
"P 	c #755324",
"Q 	c #623E18",
"R 	c #5F3A15",
"S 	c #613C17",
"T 	c #563211",
"U 	c #8A672F",
"V 	c #A9833F",
"W 	c #A27D3B",
"X 	c #9E7839",
"Y 	c #6F4C20",
"Z 	c #68441B",
"` 	c #68421A",
" .	c #5A965D",
"..	c #573412",
"+.	c #63411A",
"@.	c #7C5A28",
"#.	c #AA853F",
"$.	c #A8823E",
"%.	c #715022",
"&.	c #5E3B16",
"*.	c #633D17",
"=.	c #6B441B",
"-.	c #6C441B",
";.	c #593613",
">.	c #5D3A16",
",.	c #64421B",
"'.	c #906D33",
").	c #A8843F",
"!.	c #9E7A3A",
"~.	c #6D4C20",
"{.	c #5D3A15",
"].	c #643F18",
"^.	c #6A441B",
"/.	c #5A3714",
"(.	c #613E18",
"_.	c #7C5B28",
":.	c #926F33",
"<.	c #977336",
"[.	c #967336",
"}.	c #967235",
"|.	c #8B6930",
"1.	c #5B3815",
"2.	c #583513",
"3.	c #5D3915",
"4.	c #653F19",
"5.	c #66451C",
"6.	c #704E21",
"7.	c #725123",
"8.	c #714F22",
"9.	c #653F18",
"0.	c #6A431B",
"a.	c #59965E",
"b.	c #5C3815",
"c.	c #5E3A16",
"d.	c #633F18",
"e.	c #7A5827",
"f.	c #916E33",
"g.	c #977436",
"h.	c #704D21",
"i.	c #5A3613",
"j.	c #5B3714",
"k.	c #5E3A15",
"l.	c #623D17",
"m.	c #674119",
"n.	c #69431A",
"o.	c #5A945C",
"p.	c #5F3B16",
"q.	c #664019",
"r.	c #6C481E",
"s.	c #745324",
"t.	c #6A451C",
"u.	c #643E18",
"v.	c #5B3814",
"w.	c #603C17",
"x.	c #654019",
"y.	c #66411A",
"z.	c #68431B",
"A.	c #69421A",
"B.	c #633E18",
"C.	c #6A431A",
"D.	c #6E461C",
"E.	c #71491E",
"F.	c #724A1E",
"G.	c #774F21",
"H.	c #7C5524",
"I.	c #7B5423",
"J.	c #754D20",
"K.	c #70481D",
"L.	c #6D451C",
"M.	c #593614",
"N.	c #6C451B",
"O.	c #794F21",
"P.	c #7B5122",
"Q.	c #7F5625",
"R.	c #845C28",
"S.	c #805725",
"T.	c #795122",
"U.	c #7C5122",
"V.	c #7C5222",
"W.	c #7D5323",
"X.	c #805625",
"Y.	c #835A27",
"Z.	c #855C28",
"`.	c #7F5725",
" +	c #724B1F",
".+	c #5F3A16",
"++	c #543212",
"@+	c #533112",
"#+	c #6F471D",
"$+	c #744B1F",
"%+	c #795021",
"&+	c #7A5022",
"*+	c #815725",
"=+	c #875E29",
"-+	c #835B27",
";+	c #764F21",
">+	c #603B16",
",+	c #583614",
"'+	c #513011",
")+	c #4F2E11",
"!+	c #754C1F",
"~+	c #774E20",
"{+	c #734A1E",
"]+	c #875F29",
"^+	c #855D28",
"/+	c #7B5323",
"(+	c #6F481D",
"_+	c #583514",
":+	c #512F11",
"<+	c #4E2D11",
"[+	c #784F21",
"}+	c #734B1F",
"|+	c #6E471C",
"1+	c #7F5524",
"2+	c #764E21",
"3+	c #67421A",
"4+	c #623D18",
"5+	c #643F19",
"6+	c #553213",
"7+	c #613D17",
"8+	c #68411A",
"9+	c #784E21",
"0+	c #6C451C",
"a+	c #7A5122",
"b+	c #785122",
"c+	c #825A27",
"d+	c #7E5625",
"e+	c #6F491E",
"f+	c #553313",
"g+	c #523112",
"h+	c #734A1F",
"i+	c #754C20",
"j+	c #764D20",
"k+	c #754E20",
"l+	c #815926",
"m+	c #744D20",
"n+	c #573513",
"o+	c #5E3A17",
"p+	c #523012",
"q+	c #4F2D11",
"r+	c #6D461C",
"s+	c #7C5423",
"t+	c #67411A",
"u+	c #573413",
"v+	c #502E11",
"w+	c #5A3615",
"x+	c #5A3715",
"y+	c #4D2C10",
"z+	c #6E471D",
"A+	c #502F11",
"B+	c #573514",
"C+	c #4C2B10",
"D+	c #774D20",
"E+	c #4E2D10",
"F+	c #4B2A10",
"G+	c #664119",
"H+	c #59945C",
"I+	c #7A5021",
"J+	c #4E2C10",
"K+	c #593714",
"L+	c #5B3715",
"M+	c #533212",
"N+	c #70491D",
"O+	c #785021",
"P+	c #543112",
"Q+	c #563413",
"R+	c #6C461C",
"S+	c #603B17",
"T+	c #714A1E",
"U+	c #7D5524",
"V+	c #855D29",
"W+	c #885F2A",
"X+	c #795223",
"Y+	c #7B5424",
"Z+	c #7D5624",
"`+	c #815826",
" @	c #714B1F",
".@	c #5D3916",
"+@	c #69431B",
"@@	c #68431A",
"#@	c #845D28",
"$@	c #865E29",
"%@	c #805825",
"&@	c #7B5222",
"*@	c #6D471C",
"=@	c #714C1F",
"-@	c #785323",
";@	c #7C5624",
">@	c #744C20",
",@	c #563313",
"'@	c #4B2B10",
")@	c #5F3C17",
"!@	c #634019",
"~@	c #6A451B",
"{@	c #6E481D",
"]@	c #7E5424",
"^@	c #845B27",
"/@	c #785022",
"(@	c #4D2B10",
"_@	c #72491E",
":@	c #603C16",
"<@	c #825926",
"[@	c #775021",
"}@	c #553212",
"|@	c #7E5524",
"1@	c #865D28",
"2@	c #553312",
"3@	c #513012",
"4@	c #543213",
"5@	c #795222",
"6@	c #5C3816",
"7@	c #512F12",
"8@	c #744C1F",
"9@	c #5C3916",
"0@	c #7D5423",
"a@	c #7F5624",
"b@	c #7C5223",
"c@	c #58945C",
"d@	c #573414",
"e@	c #845B28",
"f@	c #89602A",
"g@	c #5F3A17",
"h@	c #533113",
"i@	c #795022",
"j@	c #543113",
"k@	c #7A5222",
"l@	c #5F3B17",
". . . . . . . . . . . . . . . . . . . . . . . . . . . . . . . . . . . . . . . . . . . . . . . . . . . . . . . . . . . . . . . . ",
". . . . . . . . . . . . . . . . . . . . . . . . . . . . . . . . . . . . . . . . . . . . . . . . . . . . . . . . . . . . . . . . ",
". . . . . . . . . . . . . . . . . . . . . . . . . . . . . . . . . . . . . . . . . . . . . . . . . . . . . . . . . . . . . . . . ",
". . . . . . . . . . . . . . . . . . . . . . . . . . . . . . . . . . . . . . . . . . . . . . . . . . . . . . . . . . . . . . . . ",
". . . . . . . . . . . . . . . . . . . . . . . . . . . . . . . . . . . . . . . . . . . . . . . . . . . . . . . . . . . . . . . . ",
". . . . . . . . . . . . . . . . . . . . .                                 . . . . . . . . . . . . . . . . . . . . . . . . . . . ",
". . . . . . . . . . . . . . . . . . . .     + + + + + + + + + + + + + +     . . . . . . . . . . . . . . . . . . . . . . . . . . ",
". . . . . . . . . . . . . . . . . . .     @ @ @ @ @ @ @ @ @ @ @ @ @ @ @ #         . . . . . . . . . . . . . . . . . . . . . . . ",
". . . . . . . . . . . . . . . . . .     $ % & * * * * * * * * * * * * * = - ; >     . . . . . . . . . . . . . . . . . . . . . . ",
". . . . . . . . . . . . . . . . .     , ' ) ! ~ ~ ~ ~ ~ ~ ~ ~ ~ ~ ! { { ] ^ / ( _     . . . . . . . . . . . . . . . . . . . . . ",
". . . . . . . . . . . . . . . .     : < [ } | | | | | | | | ~ | 1 2 3 3 ! 4 5 ' = 6     . . . . . . . . . . . . . . . . . . . . ",
". . . . . . . . . . . . . . .     , < ) 7 8 9 0 0 0 0 0 0 0 9 0 a b c c d { e ~ f g h     . . . . . . . . . . . . . . . . . . . ",
". . . . . . . . . . . . . .     i ' [ j ~ 7 a j j j j j j j a 7 ~ k c c d l 1 2 { m ' n     . . . . . . . . . . . . . . . . . . ",
". . . . . . . . . . . . .     , 5 ) } o p b k k k k k k k k k k d c c c b 7 } 1 k q r s t   . . . . . . . . . . . . . . . . . . ",
". . . . . . . . . . . .     u v [ 7 ~ p w 2 c c c c c c x x x x x c d 1 y 7 y k z A B C D   E . . . . . . . . . . . . . . . . . ",
". . . . . . . . . . .     F 5 ) } o p b d c c c c c c c c c c c c c b a G q k d H 5 I J K   E . . . . . . . . . . . . . . . . . ",
". . . . . . . . . . .   L M N b O 7 p q b 2 c c c c k w | | | | | | y 7 y k z A B P Q R S   E . . . . . . . . . . . . . . . . . ",
". . . . . . . . . . .   T h U ! V b W G y d c c c c 1 } X X X X X X G q k d H % Y Z ` ` `    .. . . . . . . . . . . . . . . . . ",
". . . . . . . . . . .   ..+.@.4 7 d b W w c #.c c c b p G G G a a a ~ $.b A B %.&.*.=.-.=.  . . . . . . . . . . . . . . . . . . ",
". . . . . . . . . . .   ;.>.,.P '.q d b z d ).c c c d k b b b l 1 1 z d !.% ~.J {.].^.=.=.    . . . . . . . . . . . . . . . . . ",
". . . . . . . . . . .   /./.; (._.:.<.[.m <.!.k 3 #.#.#.3 #.{ f [.}.[.[.|.%.1.2.3.4.=.=.=.=.    . . . . . . . . . . . . . . . . ",
". . . . . . . . . . .   /./.;.K 5.6.7.7.8.n B e c c ).c c 2 f g 7.%.7.7.~.( /.;.3.9.0.=.=.=.=.  a.. . . . . . . . . . . . . . . ",
". . . . . . . . . . .   /./././././.b.c.3.d.e.f.r g.g.g.r g.U h.3.i.j.3.k.1././.K l.m.n.=.=.=.  o.. . . . . . . . . . . . . . . ",
". . . . . . . . . . .   /./././.;./.p.9.q.m.r.- s.s.s.s.s.s.6.t.*.b.b.l.u.c././.v.3.w.q.^.=.=.    . . . . . . . . . . . . . . . ",
". . . . . . . . . .     /././././.1.Q n.=.=.` x.].].y.Z z.x.q.n.m.p.p.q.A.B.c.b././.3.].0.=.=.=.    . . . . . . . . . . . . . . ",
". . . . . . . . .     /./././././.1.B.C.=.-.D.E.F.F.G.H.I.J.K.L.m.p.p.q.0.A.9.p./.M.3.].0.=.=.=.=.  o.. . . . . . . . . . . . . ",
". . . . . . . .     /././././././.1.Q n.=.N.F.O.P.P.Q.R.R.S.T.K.m.p.{.B.` 0.` S /.2./.S m.C.=.=.=.=.  . . . . . . . . . . . . . ",
". . . . . . .     /./././././././.1.Q n.=.N.F.O.U.V.W.X.Y.Z.`. +m..+1.c.l.` ` S M.++@+M.w.q.0.=.=.=.  . . . . . . . . . . . . . ",
". . . . . . .   /./././././.K {.b.b.l.C.L.#+$+%+&+O.O.P.*+=+-+;+n.>+/./.c.q.` S ,+'+)+++b.].0.=.=.=.    . . . . . . . . . . . . ",
". . . . . . .   /././././.1.S ].w.3.l.0.K.!+O.&+~+{+$+%+S.]+^+/+(+l./.M.c.q.` S _+:+<+++b.].0.=.=.=.=.   .. . . . . . . . . . . ",
". . . . . . .   /././././.b.l.q.S 3.l.^.{+O.&+[+}+|+E.[+1+-+-+`.2+3+3./.3.4+5+S b.6+:+@+M.7+8+0.=.=.=.=.    . . . . . . . . . . ",
". . . . . . .   /././././.j.c.>+3.b.l.^.}+O.9+F.|+0+E.[+a+b+H.c+d+e+B.3./.M.1.l.B.K f+g+++/.S m.^.=.=.=.=.    . . . . . . . . . ",
". . . . . .     /./././.b.3.b.v.1.c.u.=.h+[+i+D.=.-.E.[+j+K.k+l+l+m+m.p.n+:+@+o+u.p.,+p+q+@+/.7+8+0.=.=.=.=.  . . . . . . . . . ",
". . . . .     /./././.1.w.B.p.b.p.].8+=.{+[+!+r+0.=.E.[+j+#+F.s+s+F.t+p.u+v+<+6+w+x+2.p+y+<+@+/.S m.0.=.=.=.  . . . . . . . . . ",
". . . . .   /./././.1.c.4.` l.3.l.n.=.N.{+[+!+D.^.=.K.j+!+z+K.[+[+F.0.l./.@+<+y+A+B+/.++y+C+<+++1.l.` 0.=.=.        . . . . . . ",
". . . . .   /././.b.w.9.A.n.l.3.Q 0.=.0+{+O.i+D.=.=.D.E.K.L.K.~+%+D+E.n.7+/.@+E+A+b.S _+y+F+y+@+M.c.l.G+0.=.N.F.O.    . . . . . ",
". . . . H+  /././.3.].C.=.C.].S 4.0.=.N.F.~+}+N.C.=.=.N.0+r+E.j+I+&+~+(+m.p.2.'+@+o+B.x+)+C+J+++M./.K l.` 0.-.F.O.P.   .. . . . ",
". . .     /././.K+3.9.^.=.=.N.r+0+=.=.=.#+E.0+x.x.C.=.=.D.F.$+h+!+%+[+K.` >+M.f+f+M.L+_+++)+<+M+M././.{.l.q.=.F.O.P.P.    . . . ",
". . E   /./././.v.c.x.=.r+N+j+O+}+L.=.=.N.=.x.p.S m.0.=.K.j+J.E.E.j+~+E.0.l.K 1.M.P+:+++Q+g+)+@+2./././.K 7+` K.~+&+P.P.      H+",
".     /./././.v.p.B.m.R+k+H.l+l+T.|+=.=.=.0.].3.3.7+q.C.D.F.$+$+}+}+}+}+K.A.B.B.S+f+y+)+@+++++@+++u+/././.{.Q 0.E.~+&+U.P.T+7+  ",
"    /./././.v.p.t+R+r+ +U+V+W+R.X+r+A.0.=.0.].3./.b.7+` =.0+K.j+j+E.E.j+~+K.=.0.q.w+q+C+q+++Q+@+)+@+2.M.M./.K l.n.E.~+P.a+}+x.{.",
"  /./././.b.>+` m+Y+H.Z+`+Y.l+Y+ @G+l.B.m.n.9.3.M./.w.` =.=.r+F.$+}+!+O.I+j+F.|+` .@@+E+y+A+@+v+y+)+@+++++Q+K+{.l.+@E.~+I+~+(+@@",
"/./.v.v./.3.B.z+Y+#@$@R.%@&@i+*@x.c.b.c.].A.9.3.M./.w.` =.=.=.0+K.j+I+P.P.P.[+E.n.S M.p+y+y+y+y+C+y+y+y+<+@+2./.K l.n.E.~+&+O.T+",
"/.K w.w.3.K w.@@=@-@;@H.T.}+=.u.c.1.{.l.m.n.9.3.M./.w.` =.=.=.=.K.~+P.P.W.S.d+>@0.4.S+,@y+F+C+C+C+C+C+'@C+)+@+Q+M.3.l.n.E.~+&+i+",
"v.p.9.x.p.v.v.{.)@!@~@{@z+=.].{./.v.S m.0.0.9.3.M./.w.` =.=.=.^.#+j+&+P.]@^@-+/@r+^.q.x+q+C+C+C+C+C+C+C+C+(@<+@+2./.K l.0._@~+j+",
":@B.].l.k./././.;.b.u.A.8+B.p./.u+Q+K B.` n.9.3.K+j.w.` =.=.A.q.n.N+j+%+W.<@c+d+/@T+n..@@+<+C+C+C+C+C+C+C+C+C+)+@+Q+K+:@` |+F.K.",
"4.x.w.K v././././.3.9.` B.3.j.M.++A+f+K ].A.9.K M./.w.t+=.=.m.w.7+n.E.~+P.W.Q.-+c+[@^.S+_+p+y+C+C+C+C+C+C+C+C+y+<+p+2.>+m.N.L.n.",
"].4+{././.M.Q+n+3.l.].B.K ,@}@++A+E+p+/.B.` B.M.Q+M.c.B.m.C.q.c.c.q.#+~+P.P.|@1@$@X+^.S /.2@3@<+C+C+C+C+C+C+C+C+C+)+++L+l.G+A.m.",
"w.K /././.n+g+4@S+q.l.b.6+)+<+<+y+y+p+M.l.t+w.4@g+2.v.3.l.` G+p.p.q.#+D+P.P.]@Z.^+5@^.S 1.M.2.g+J+C+C+C+C+C+C+C+C+y+<+++/.c.    ",
"3.M.Q+f+f+++g+,@p.B.3.f+v+C+C+C+C+y+A+,@c.B.6@7@'+2././.:@8+` u.l.u.=.i+P.P.W.<@l+;+=.].7+S p.M.p+E+C+C+C+C+C+C+C+C+C+)+@+}@    ",
"v.n+p+)+q+:+++_+1.1.f+)+y+C+C+C+C+C+y+v+,@L+u+)+'+2././.>+t+0.A.4.S q.}+a+P.V.W.&@}+=.A.` ` m.S M.g+J+C+C+C+    C+C+C+y+<+q+    ",
"/.u+A+C+F+q+@+,@Q+++v+C+C+C+C+C+C+C+C+C+A+++p+<+v+++n+/.c.B.q.q.].7+q.K.~+&+&+[+8@#+=.=.=.=.^.n.x.9@@+E+y+      C+C+C+C+C+      ",
"/.u+A+C+    )+)+)+q+y+C+C+C+C+C+C+C+C+C+y+q+E+y+y+)+@+2.1.3.c.c.S x.n.0+E.~+[+}+|+N.=.=.=.=.0+E.F.` 1.2@    . a.  C+C+C+    . . ",
"Q+++v+C+      C+C+C+C+C+C+C+C+C+C+C+C+C+C+C+C+C+C+C+v+++n+M././.p.m.0.8+n.z+E.|+=.=.=.=.N.D.E.D+O.E.` ].  . . . .   C+    . . . ",
")+)+    . .     C+C+C+C+C+C+C+      C+C+C+  C+C+C+C+y+)+@+2././.p.m.` B.p.7+5+` =.=.=.=.L.F.~+I+a+[+J.8@  . . . .       . . . . ",
"C+C+  . . . .     C+C+C+C+C+  . . .   C+      C+C+C+C+C+A+2@n+M.k.u.4.l.c.1.3.l.m.C.=.=.r+8@&+P.P.0@a@X.  . . . . . . . . . . . ",
"    . . . . . .               . . .       .     C+C+C+    v+@+2.1.c.S 9.].c.v.3.S m.=.=.r+8@&+P.b@`+^+]+  . . . . . . . . . . . ",
"  . . . . . . . . . . . . . . . . . . . . . . .   C+      C+@+1.3.M.K q.8+w././.K l.m.n.r+8@&+P.b@`+1@W+    . . . . . . . . . . ",
"H+. . . . . . . . . . . . . . . . . . . . . . .       . c@  .@].S d@_+].8+S /.K+v.3.S q.L.8@&+P.&@0@S.e@f@    . . . . . . . . . ",
". . . . . . . . . . . . . . . . . . . . . . . . . . . . . .   4.g@4@h@c.4+K 2.M././.K l.n.E.~+&+P.%+i@`.^+R.    . . . . . . . . ",
". . . . . . . . . . . . . . . . . . . . . . . . . . . . . .   _+6+)+q+j@,@@+@+u+/./.v.3.l.n.E.~+%+j+{+O+|@k@K.    . . . . . . . ",
". . . . . . . . . . . . . . . . . . . . . . . . . . . . . .   y+(@C+<+p+p+q+q+}@M.M.2.n+/.S n._@j+F.D._@j+}+r+=.    . . . . . . ",
". . . . . . . . . . . . . . . . . . . . . . . . . . . . . .         d@l@.@j@J+:+  @+'+:+@+M.7+0.(+|+N.r+K.|+N.=.=.    . . . . . ",
". . . . . . . . . . . . . . . . . . . . . . . . . . . . . . . . . .   0.5+B+y+    y+C+C+<+@+M.l.` 0.=.=.=.=.=.=.=.=.  . . . . . "};
